<svg xmlns="http://www.w3.org/2000/svg" xmlns:xlink="http://www.w3.org/1999/xlink" viewBox="0 0 58.5 58.5"><defs><style>.cls-1{fill:url(#linear-gradient);}</style><linearGradient id="linear-gradient" x1="29.25" y1="-646" x2="29.25" y2="-587.5" gradientTransform="matrix(1, 0, 0, -1, 0, -587.5)" gradientUnits="userSpaceOnUse"><stop offset="0" stop-color="#0052cc"/><stop offset="1" stop-color="#2684ff"/></linearGradient></defs><title>Trello-icon-blue</title><g id="Layer_2" data-name="Layer 2"><g id="Blue"><g id="Layer_2-2" data-name="Layer 2"><g id="Layer_1-2" data-name="Layer 1-2"><path class="cls-1" d="M51.19,0H7.31A7.31,7.31,0,0,0,0,7.31V51.19A7.31,7.31,0,0,0,7.31,58.5H51.19a7.31,7.31,0,0,0,7.31-7.31V7.31A7.31,7.31,0,0,0,51.19,0ZM25.45,44.31a3.51,3.51,0,0,1-3.51,3.51H11.11A3.51,3.51,0,0,1,7.6,44.31h0V11.11A3.51,3.51,0,0,1,11.11,7.6H21.94a3.51,3.51,0,0,1,3.51,3.51ZM50.89,29.69a3.51,3.51,0,0,1-3.51,3.51H36.56a3.51,3.51,0,0,1-3.51-3.51V11.11A3.51,3.51,0,0,1,36.56,7.6H47.38a3.51,3.51,0,0,1,3.51,3.51h0Z"/></g></g></g></g></svg>